<?xml version="1.0" standalone="no"?>
<!DOCTYPE svg PUBLIC "-//W3C//DTD SVG 20010904//EN"
 "http://www.w3.org/TR/2001/REC-SVG-20010904/DTD/svg10.dtd">
<svg version="1.0" xmlns="http://www.w3.org/2000/svg"
 width="500.000000pt" height="500.000000pt" viewBox="0 0 500.000000 500.000000"
 preserveAspectRatio="xMidYMid meet">
<metadata>
Created by potrace 1.14, written by Peter Selinger 2001-2017
</metadata>
<g transform="translate(0.000000,500.000000) scale(0.100000,-0.100000)"
fill="#000000" stroke="none">
<path d="M2767 4364 c-4 -4 -76 -11 -159 -15 -248 -14 -321 -22 -348 -41 -13
-10 -40 -18 -58 -18 -44 0 -138 -27 -156 -45 -7 -8 -38 -21 -67 -31 -30 -9
-60 -21 -66 -27 -7 -5 -13 -6 -13 -2 0 7 -70 -33 -80 -45 -3 -4 -17 -10 -32
-14 -29 -7 -85 -41 -113 -70 -9 -9 -21 -16 -26 -16 -5 0 -20 -9 -32 -21 -12
-12 -39 -32 -59 -45 -51 -33 -118 -96 -118 -111 0 -7 -4 -12 -8 -10 -11 3
-142 -128 -142 -142 0 -6 -6 -11 -14 -11 -7 0 -33 -29 -56 -65 -23 -36 -46
-65 -50 -65 -4 0 -15 -18 -25 -40 -10 -22 -21 -40 -26 -40 -4 0 -12 -12 -18
-27 -16 -38 -44 -87 -53 -91 -5 -2 -8 -12 -8 -22 0 -10 -6 -25 -13 -32 -20
-23 -47 -78 -47 -99 0 -10 -4 -19 -10 -19 -5 0 -10 -11 -10 -25 0 -14 -4 -25
-10 -25 -5 0 -10 -20 -10 -44 0 -26 -6 -48 -15 -56 -8 -7 -15 -25 -15 -40 0
-15 -6 -50 -14 -76 -22 -77 -48 -292 -47 -394 2 -157 42 -453 72 -525 4 -11
11 -36 14 -55 4 -19 20 -63 36 -98 16 -34 29 -68 29 -76 0 -8 6 -21 13 -28 11
-11 36 -59 48 -93 6 -16 122 -188 141 -209 10 -11 18 -25 18 -31 0 -5 20 -30
45 -55 24 -25 44 -50 45 -57 0 -6 4 -13 10 -15 5 -1 53 -46 107 -98 54 -52
128 -115 166 -140 37 -25 67 -48 67 -52 0 -5 6 -8 14 -8 7 0 19 -7 26 -15 7
-8 19 -15 27 -15 7 0 24 -9 36 -21 26 -25 69 -48 95 -52 11 -2 26 -7 34 -13
18 -14 86 -41 123 -49 16 -4 52 -17 80 -30 27 -12 74 -29 103 -36 28 -7 52
-16 52 -21 0 -4 35 -8 78 -8 43 0 83 -5 88 -10 14 -14 435 -14 489 0 22 5 62
10 88 10 27 0 58 6 70 12 19 11 69 26 147 45 14 3 27 9 30 12 3 4 25 13 50 20
25 7 47 16 50 20 3 4 46 25 95 46 50 21 92 41 95 44 7 8 41 29 65 40 11 5 32
19 46 32 61 56 89 79 97 79 4 0 37 28 74 63 51 48 68 71 75 102 7 34 10 969 4
1030 -1 11 -1 41 1 67 6 88 36 83 -514 83 l-482 0 -33 36 c-18 20 -33 40 -33
44 0 5 -25 32 -56 62 -40 39 -66 56 -93 60 -20 4 -46 13 -59 21 -30 20 -203
23 -210 4 -2 -7 -11 -12 -19 -12 -46 0 -97 -28 -153 -83 -34 -33 -66 -69 -71
-81 -5 -11 -13 -28 -17 -36 -25 -43 -32 -62 -32 -80 0 -12 -7 -35 -16 -51 -17
-34 -16 -74 3 -104 7 -11 13 -34 13 -52 0 -18 5 -33 10 -33 6 0 10 -6 10 -14
0 -45 127 -196 165 -196 9 0 33 -11 53 -25 34 -23 46 -25 147 -25 126 0 180
15 228 61 18 16 44 37 59 45 15 8 30 25 34 38 3 14 12 27 20 30 8 3 19 17 24
31 14 36 53 48 140 41 93 -6 421 -7 476 0 29 3 45 0 54 -10 9 -12 12 -97 11
-356 -1 -227 2 -346 9 -360 21 -38 5 -51 -188 -162 -26 -14 -52 -31 -58 -36
-6 -5 -26 -13 -45 -17 -19 -4 -65 -23 -104 -42 -38 -19 -86 -36 -105 -37 -19
-1 -46 -8 -60 -16 -77 -42 -546 -42 -670 0 -19 6 -52 13 -73 15 -21 1 -46 10
-56 19 -9 9 -24 16 -32 16 -8 0 -32 9 -54 20 -22 11 -45 20 -52 20 -16 0 -131
61 -200 106 -28 19 -56 34 -62 34 -5 0 -13 9 -16 20 -3 11 -12 20 -20 20 -18
0 -315 299 -315 317 0 3 -15 29 -32 57 -53 83 -57 90 -72 122 -8 17 -19 34
-24 38 -6 3 -13 24 -17 46 -4 22 -11 38 -16 34 -5 -3 -9 3 -9 13 0 11 -4 23
-8 29 -12 14 -30 74 -37 129 -4 28 -14 58 -22 67 -10 11 -15 41 -16 91 -1 41
-6 73 -11 70 -4 -3 -5 4 -1 16 4 12 2 21 -4 21 -16 0 -15 257 1 262 7 3 11 22
10 48 -1 23 3 49 10 57 14 17 18 52 7 58 -4 3 1 29 12 57 10 29 19 61 19 71 0
10 9 30 20 44 12 16 18 34 14 48 -3 13 1 28 10 38 9 8 16 22 16 30 0 18 31 80
43 85 4 2 7 12 7 22 0 9 7 23 15 30 8 7 15 20 15 30 0 10 7 24 16 31 16 13 45
53 89 123 11 17 30 39 42 49 13 10 23 25 23 33 0 8 3 13 8 11 4 -3 23 13 42
35 19 22 44 49 55 58 71 63 117 100 126 100 5 0 21 12 36 28 16 15 42 35 58
44 70 40 210 108 222 108 7 0 13 4 13 8 0 5 24 14 53 21 28 8 58 18 65 24 12
9 60 22 127 33 23 4 26 3 15 -5 -12 -9 -11 -11 8 -11 13 0 37 10 54 21 26 19
39 21 103 16 43 -4 77 -2 80 4 7 11 105 13 105 2 0 -5 36 -8 79 -8 61 0 84 -5
99 -18 21 -19 37 -23 26 -6 -5 8 2 10 22 6 16 -3 52 -10 80 -16 29 -5 60 -14
70 -19 27 -14 88 -32 106 -32 9 0 18 -3 20 -7 2 -5 39 -26 83 -48 98 -49 145
-84 145 -108 0 -10 -16 -34 -35 -54 -19 -20 -35 -40 -35 -45 0 -4 -5 -8 -11
-8 -19 0 -69 -64 -69 -88 0 -18 149 -172 166 -172 7 0 16 -9 19 -21 11 -34 53
-15 110 49 28 31 61 65 75 77 13 11 36 32 51 48 15 15 32 27 38 27 6 0 11 5
11 12 0 6 69 80 154 163 89 89 158 165 164 183 10 29 8 32 -30 64 -23 18 -46
39 -52 46 -40 47 -110 112 -120 112 -16 0 -43 -20 -105 -79 -29 -28 -62 -51
-73 -51 -10 0 -17 4 -14 9 3 5 -7 11 -22 14 -15 3 -36 15 -48 25 -24 23 -101
62 -121 62 -7 0 -13 5 -13 11 0 5 -13 15 -30 20 -16 6 -30 15 -30 20 0 4 -19
13 -42 19 -75 20 -112 34 -131 49 -26 22 -87 41 -132 41 -24 0 -50 8 -65 20
-20 16 -41 20 -112 20 -48 0 -90 5 -93 10 -3 6 -19 10 -34 10 -15 0 -32 5 -37
10 -6 6 -13 7 -17 4z m-217 -1914 c0 -5 9 -10 20 -10 33 0 106 -83 114 -128
11 -73 -3 -128 -43 -164 -52 -49 -90 -62 -155 -54 -46 6 -62 14 -100 49 -47
44 -53 64 -48 168 2 46 52 99 110 118 23 8 39 18 36 22 -3 5 11 9 30 9 20 0
36 -4 36 -10z"/>
<path d="M2475 2390 c-3 -5 -3 -10 2 -10 4 0 -7 -9 -25 -20 -18 -11 -37 -32
-43 -47 -13 -34 -3 -91 20 -122 16 -21 26 -24 72 -22 30 1 61 4 69 7 18 5 50
67 50 97 0 28 -35 86 -58 94 -9 4 -21 12 -25 20 -9 15 -53 18 -62 3z"/>
<path d="M3818 2443 c7 -3 16 -2 19 1 4 3 -2 6 -13 5 -11 0 -14 -3 -6 -6z"/>
</g>
</svg>
