<?xml version="1.0" standalone="no"?>
<!DOCTYPE svg PUBLIC "-//W3C//DTD SVG 20010904//EN"
 "http://www.w3.org/TR/2001/REC-SVG-20010904/DTD/svg10.dtd">
<svg version="1.0" xmlns="http://www.w3.org/2000/svg"
 width="500.000000pt" height="500.000000pt" viewBox="0 0 500.000000 500.000000"
 preserveAspectRatio="xMidYMid meet">
<metadata>
Created by potrace 1.14, written by Peter Selinger 2001-2017
</metadata>
<g transform="translate(0.000000,500.000000) scale(0.100000,-0.100000)"
fill="#000000" stroke="none">
<path d="M0 2500 l0 -2500 2500 0 2500 0 0 2500 0 2500 -2500 0 -2500 0 0
-2500z m3400 2060 c569 -116 936 -479 1050 -1039 37 -184 40 -293 40 -1703 l0
-1378 -880 0 -880 0 -2 1253 -3 1252 -30 60 c-21 42 -43 69 -73 90 -39 27 -51
30 -120 30 -119 -1 -176 -39 -220 -147 -16 -40 -17 -135 -20 -1291 l-2 -1247
-878 2 -877 3 0 2045 0 2045 875 0 875 0 3 -703 c2 -693 2 -703 22 -700 15 2
96 156 346 658 179 360 342 688 360 729 l34 74 138 -6 c78 -3 182 -14 242 -27z"/>
</g>
</svg>
